<!DOCTYPE svg PUBLIC "-//W3C//DTD SVG 1.1//EN" "http://www.w3.org/Graphics/SVG/1.1/DTD/svg11.dtd">
<!-- Uploaded to: SVG Repo, www.svgrepo.com, Transformed by: SVG Repo Mixer Tools -->
<svg fill="#ffffff" width="100px" height="100px" viewBox="0 0 24.00 24.00" id="cross" data-name="Flat Color" xmlns="http://www.w3.org/2000/svg" class="icon flat-color" stroke="#ffffff" stroke-width="1.9919999999999998">
<g id="SVGRepo_bgCarrier" stroke-width="0"/>
<g id="SVGRepo_tracerCarrier" stroke-linecap="round" stroke-linejoin="round" stroke="#CCCCCC" stroke-width="0.144"/>
<g id="SVGRepo_iconCarrier">
<path id="primary" d="M13.41,12l6.3-6.29a1,1,0,1,0-1.42-1.42L12,10.59,5.71,4.29A1,1,0,0,0,4.29,5.71L10.59,12l-6.3,6.29a1,1,0,0,0,0,1.42,1,1,0,0,0,1.42,0L12,13.41l6.29,6.3a1,1,0,0,0,1.42,0,1,1,0,0,0,0-1.42Z" style="fill: #ffffff;"/>
</g>
</svg>