<svg width="40" height="40" viewBox="0 0 40 40" fill="none" xmlns="http://www.w3.org/2000/svg">
<path d="M36.9381 9.36518C34.6791 5.76724 31.3331 2.98211 27.385 1.41341C23.4369 -0.155286 19.0919 -0.426045 14.9796 0.640374C10.8673 1.70679 7.20139 4.05498 4.51319 7.34463C1.82498 10.6343 0.254132 14.6945 0.0282902 18.9368C-0.197552 23.1791 0.93335 27.3831 3.2571 30.9396C5.58085 34.4961 8.97671 37.2202 12.9525 38.7172C16.9284 40.2142 21.2776 40.4063 25.3699 39.2656C29.4623 38.1249 33.0851 35.7108 35.7133 32.373L32.3134 29.6959C30.2538 32.3114 27.4149 34.2032 24.208 35.0971C21.0012 35.991 17.593 35.8404 14.4774 34.6673C11.3618 33.4943 8.70073 31.3595 6.87977 28.5726C5.05881 25.7856 4.1726 22.4912 4.34958 19.1668C4.52656 15.8424 5.75752 12.6608 7.86408 10.0829C9.97063 7.50502 12.8433 5.6649 16.0659 4.82923C19.2884 3.99355 22.6933 4.20572 25.7871 5.435C28.881 6.66428 31.503 8.84679 33.2732 11.6662L36.9381 9.36518Z" fill="#A1E06F"/>
<path d="M14.875 19L33 19V22.5H14.875V19Z" fill="#A1E06F"/>
<path d="M40 20.75L32.875 28.3277L32.875 13.1723L40 20.75Z" fill="#A1E06F"/>
</svg>
