<svg width="40" height="40" viewBox="0 0 40 40" fill="none" xmlns="http://www.w3.org/2000/svg">
<path d="M0 20C4.04514e-07 15.3729 1.60439 10.889 4.53979 7.31216C7.4752 3.73536 11.56 1.28703 16.0982 0.384325C20.6364 -0.518377 25.3472 0.180405 29.4279 2.36161C33.5087 4.54281 36.7069 8.07148 38.4776 12.3464C40.2483 16.6213 40.482 21.3779 39.1388 25.8057C37.7956 30.2336 34.9587 34.0587 31.1114 36.6294C27.2641 39.2001 22.6445 40.3573 18.0396 39.9037C13.4348 39.4502 9.12971 37.414 5.85785 34.1422L8.95215 31.0479C11.5081 33.6038 14.8713 35.1945 18.4686 35.5488C22.0659 35.9031 25.6747 34.9991 28.6802 32.9909C31.6857 30.9827 33.9019 27.9945 34.9512 24.5354C36.0005 21.0764 35.818 17.3605 34.4347 14.021C33.0514 10.6814 30.553 7.92485 27.3651 6.22089C24.1772 4.51693 20.4972 3.97104 16.9519 4.67623C13.4067 5.38143 10.2156 7.29407 7.92248 10.0883C5.62934 12.8825 4.37599 16.3853 4.37599 20H0Z" fill="#A1E06F"/>
<path d="M12.0003 19.9999C8.66701 22.3333 1.50012 27.4999 1.50012 27.4999C1.50012 27.4999 0 24.5002 0 20C1 20.0002 4.00034 19.9999 4.00034 19.9999H12.0003Z" fill="#A1E06F"/>
<path d="M18 21.4969L19.2769 19.2493L26.9515 23.7524L25.6747 25.9999L18 21.4969Z" fill="#A1E06F"/>
<path d="M18 11H21V21.49H18V11Z" fill="#A1E06F"/>
</svg>
