<svg id="Слой_1" data-name="Слой 1" xmlns="http://www.w3.org/2000/svg" viewBox="0 0 147 147"><defs><style>.cls-1{fill:#efffcf;}.cls-2{fill:#8ace20;}</style></defs><path class="cls-1" d="M-777,184.5a73.14,73.14,0,0,1-13,41.8,74.18,74.18,0,0,1-10.12,11.75A73.23,73.23,0,0,1-850.5,258a73.2,73.2,0,0,1-50.77-20.36A73.87,73.87,0,0,1-911,226.3a73.14,73.14,0,0,1-13-41.8A73.5,73.5,0,0,1-850.5,111,73.5,73.5,0,0,1-777,184.5Z" transform="translate(924 -111)"/><path class="cls-2" d="M-800.16,238.05A73.23,73.23,0,0,1-850.5,258a73.2,73.2,0,0,1-50.77-20.36C-888.18,227.33-870.47,221-851,221-831.23,221-813.31,227.5-800.16,238.05Z" transform="translate(924 -111)"/><circle class="cls-2" cx="73" cy="73" r="31"/></svg>